# xmcd
#
# Track frame offsets: 
#        150
#        19561
#        39274
#        54029
#        76902
#        96403
#        112857
#        132733
#        149816
#        190682
#        221246
#        265412
#
# Disc length: 3807 seconds
#
# Revision: 0
# Processed by: cddbd v1.5.2PL0 Copyright (c) Steve Scherf et al.
# Submitted via: ExactAudioCopyFreeDBPlugin 1.0
#
DISCID=a80edd0c
DTITLE=David Grissom - How It Feels To Fly
DYEAR=2014
DGENRE=Blues
TTITLE0=Bringin' Sunday Mornin' To Saturday Night
TTITLE1=How It Feels To Fly
TTITLE2=Georgia Girl
TTITLE3=Never Came Easy To Me
TTITLE4=Way Jose
TTITLE5=Overnight
TTITLE6=Gift Of Desperation
TTITLE7=Satisfied
TTITLE8=Jessica (Live)
TTITLE9=Way Down Deep (Live)
TTITLE10=Flim Flam (Live)
TTITLE11=Nasty Dogs And Funky Kings (Live)
EXTD=
EXTT0=
EXTT1=
EXTT2=
EXTT3=
EXTT4=
EXTT5=
EXTT6=
EXTT7=
EXTT8=
EXTT9=
EXTT10=
EXTT11=
PLAYORDER=
